<?xml version="1.0" encoding="UTF-8" standalone="no"?>
<!-- Created with Inkscape (http://www.inkscape.org/) -->

<svg
   xmlns:dc="http://purl.org/dc/elements/1.1/"
   xmlns:cc="http://creativecommons.org/ns#"
   xmlns:rdf="http://www.w3.org/1999/02/22-rdf-syntax-ns#"
   xmlns:svg="http://www.w3.org/2000/svg"
   xmlns="http://www.w3.org/2000/svg"
   xmlns:xlink="http://www.w3.org/1999/xlink"
   xmlns:sodipodi="http://sodipodi.sourceforge.net/DTD/sodipodi-0.dtd"
   xmlns:inkscape="http://www.inkscape.org/namespaces/inkscape"
   version="1.2"
   width="297mm"
   height="210mm"
   viewBox="0 0 1052.3622 744.09448"
   id="svg2"
   inkscape:version="0.48.4 r9939"
   sodipodi:docname="PopSVworkflow.svg">
  <sodipodi:namedview
     pagecolor="#ffffff"
     bordercolor="#666666"
     borderopacity="1"
     objecttolerance="10"
     gridtolerance="10"
     guidetolerance="10"
     inkscape:pageopacity="0"
     inkscape:pageshadow="2"
     inkscape:window-width="1920"
     inkscape:window-height="1024"
     id="namedview136"
     showgrid="false"
     inkscape:zoom="0.89707533"
     inkscape:cx="636.77163"
     inkscape:cy="267.43775"
     inkscape:window-x="0"
     inkscape:window-y="27"
     inkscape:window-maximized="1"
     inkscape:current-layer="svg2" />
  <defs
     id="defs4">
    <pattern
       inkscape:collect="always"
       xlink:href="#pattern5731"
       id="pattern3213"
       patternTransform="matrix(12.372883,0,0,17.872798,460.18155,-870.79926)" />
    <marker
       refX="0"
       refY="0"
       orient="auto"
       id="marker8924"
       style="overflow:visible">
      <path
         d="M 8.7185878,4.0337352 -2.2072895,0.01601326 8.7185884,-4.0017078 c -1.7454984,2.3720609 -1.7354408,5.6174519 -6e-7,8.035443 z"
         transform="scale(-0.6,-0.6)"
         id="path8926"
         style="fill:#e69f00;fill-opacity:1;fill-rule:evenodd;stroke:#e69f00;stroke-width:0.625;stroke-linejoin:round;stroke-opacity:1" />
    </marker>
    <marker
       refX="0"
       refY="0"
       orient="auto"
       id="marker8802"
       style="overflow:visible">
      <path
         d="M 8.7185878,4.0337352 -2.2072895,0.01601326 8.7185884,-4.0017078 c -1.7454984,2.3720609 -1.7354408,5.6174519 -6e-7,8.035443 z"
         transform="scale(-0.6,-0.6)"
         id="path8804"
         style="fill:#000000;fill-opacity:1;fill-rule:evenodd;stroke:#000000;stroke-width:0.625;stroke-linejoin:round;stroke-opacity:1" />
    </marker>
    <marker
       refX="0"
       refY="0"
       orient="auto"
       id="marker7934"
       style="overflow:visible">
      <path
         d="M 8.7185878,4.0337352 -2.2072895,0.01601326 8.7185884,-4.0017078 c -1.7454984,2.3720609 -1.7354408,5.6174519 -6e-7,8.035443 z"
         transform="scale(-0.6,-0.6)"
         id="path7936"
         style="fill:#000000;fill-opacity:1;fill-rule:evenodd;stroke:#000000;stroke-width:0.625;stroke-linejoin:round;stroke-opacity:1" />
    </marker>
    <marker
       refX="0"
       refY="0"
       orient="auto"
       id="Arrow2Mend"
       style="overflow:visible">
      <path
         d="M 8.7185878,4.0337352 -2.2072895,0.01601326 8.7185884,-4.0017078 c -1.7454984,2.3720609 -1.7354408,5.6174519 -6e-7,8.035443 z"
         transform="scale(-0.6,-0.6)"
         id="path5959"
         style="fill:#000000;fill-opacity:1;fill-rule:evenodd;stroke:#000000;stroke-width:0.625;stroke-linejoin:round;stroke-opacity:1" />
    </marker>
    <marker
       refX="0"
       refY="0"
       orient="auto"
       id="TriangleOutL"
       style="overflow:visible">
      <path
         d="m 5.77,0 -8.65,5 0,-10 8.65,5 z"
         transform="scale(0.8,0.8)"
         id="path6074"
         style="fill:#000000;fill-opacity:1;fill-rule:evenodd;stroke:#000000;stroke-width:1pt;stroke-opacity:1" />
    </marker>
    <marker
       refX="0"
       refY="0"
       orient="auto"
       id="Arrow1Lend"
       style="overflow:visible">
      <path
         d="M 0,0 5,-5 -12.5,0 5,5 0,0 z"
         transform="matrix(-0.8,0,0,-0.8,-10,0)"
         id="path5935"
         style="fill:#000000;fill-opacity:1;fill-rule:evenodd;stroke:#000000;stroke-width:1pt;stroke-opacity:1" />
    </marker>
    <marker
       refX="0"
       refY="0"
       orient="auto"
       id="Arrow1Lstart"
       style="overflow:visible">
      <path
         d="M 0,0 5,-5 -12.5,0 5,5 0,0 z"
         transform="matrix(0.8,0,0,0.8,10,0)"
         id="path5932"
         style="fill:#000000;fill-opacity:1;fill-rule:evenodd;stroke:#000000;stroke-width:1pt;stroke-opacity:1" />
    </marker>
    <pattern
       patternTransform="matrix(10,0,0,10,6,70)"
       id="pattern5759"
       xlink:href="#pattern5721" />
    <pattern
       patternTransform="matrix(12.372883,0,0,17.872798,460.18155,-562.53154)"
       id="pattern5731"
       xlink:href="#pattern5721" />
    <pattern
       patternTransform="matrix(10,0,0,10,24,70)"
       id="pattern5721"
       xlink:href="#pattern5664" />
    <pattern
       patternTransform="matrix(10,0,0,10,6,148)"
       id="pattern5719"
       xlink:href="#pattern5693" />
    <pattern
       patternTransform="matrix(10,0,0,10,6,228)"
       id="pattern5717"
       xlink:href="#pattern5703" />
    <pattern
       patternTransform="matrix(10,0,0,10,24,420)"
       id="pattern5713"
       xlink:href="#pattern5703" />
    <pattern
       patternTransform="matrix(10,0,0,10,0,158)"
       id="pattern5703"
       xlink:href="#pattern5693" />
    <pattern
       patternTransform="matrix(10,0,0,10,0,78)"
       id="pattern5693"
       xlink:href="#pattern5664" />
    <pattern
       patternTransform="scale(10,10)"
       id="pattern5664"
       xlink:href="#Strips1_1" />
    <pattern
       patternUnits="userSpaceOnUse"
       width="2"
       height="1"
       patternTransform="translate(0,0) scale(10,10)"
       id="Strips1_1">
      <rect
         style="fill:black;stroke:none"
         x="0"
         y="-0.5"
         width="1"
         height="2"
         id="rect4867" />
    </pattern>
  </defs>
  <metadata
     id="metadata7">
    <rdf:RDF>
      <cc:Work
         rdf:about="">
        <dc:format>image/svg+xml</dc:format>
        <dc:type
           rdf:resource="http://purl.org/dc/dcmitype/StillImage" />
        <dc:title />
      </cc:Work>
    </rdf:RDF>
  </metadata>
  <path
     inkscape:connector-curvature="0"
     style="fill:#dbecc4;fill-opacity:1;stroke:#000000;stroke-width:1.79280424;stroke-miterlimit:4;stroke-opacity:1;stroke-dasharray:none"
     id="path4138"
     d="m 197.69355,48.720904 a 83.939578,38.16072 0 1 1 -167.879155,0 83.939578,38.16072 0 1 1 167.879155,0 z" />
  <path
     inkscape:connector-curvature="0"
     style="fill:#dbecc4;fill-opacity:1;stroke:#000000;stroke-width:1.79280424;stroke-miterlimit:4;stroke-opacity:1;stroke-dasharray:none"
     id="path4136"
     d="m 201.69355,52.720904 a 83.939578,38.16072 0 1 1 -167.879155,0 83.939578,38.16072 0 1 1 167.879155,0 z" />
  <path
     inkscape:connector-curvature="0"
     style="fill:#dbecc4;fill-opacity:1;stroke:#000000;stroke-width:1.79280424;stroke-miterlimit:4;stroke-opacity:1;stroke-dasharray:none"
     id="path4134"
     d="m 205.69355,56.720904 a 83.939578,38.16072 0 1 1 -167.879155,0 83.939578,38.16072 0 1 1 167.879155,0 z" />
  <path
     inkscape:connector-curvature="0"
     style="fill:#dbecc4;fill-opacity:1;stroke:#000000;stroke-width:1.79280424;stroke-miterlimit:4;stroke-opacity:1;stroke-dasharray:none"
     id="path3287"
     d="m 209.69355,60.720904 a 83.939578,38.16072 0 1 1 -167.879155,0 83.939578,38.16072 0 1 1 167.879155,0 z" />
  <path
     inkscape:connector-curvature="0"
     style="fill:none;stroke:#000000;stroke-width:3;stroke-linecap:butt;stroke-linejoin:round;stroke-miterlimit:4;stroke-opacity:1;stroke-dasharray:none"
     id="path5723"
     d="m 974.76344,65.06599 67.60386,97.94895 0,-103.07048 -68.48757,102.43031" />
  <rect
     style="opacity:0.24800002;fill:url(#pattern3213);fill-opacity:1;fill-rule:nonzero;stroke:#000000;stroke-width:3;stroke-linecap:round;stroke-linejoin:miter;stroke-miterlimit:4;stroke-opacity:1;stroke-dasharray:none;stroke-dashoffset:0"
     id="rect5725"
     y="65.361366"
     x="552.09442"
     height="97.023689"
     width="422.44556" />
  <rect
     style="fill:none;stroke:#000000;stroke-width:3;stroke-linecap:round;stroke-linejoin:miter;stroke-miterlimit:4;stroke-opacity:1;stroke-dasharray:none;stroke-dashoffset:0"
     id="rect5727"
     y="65.361366"
     x="552.09442"
     height="97.023689"
     width="422.44556" />
  <path
     inkscape:connector-curvature="0"
     style="opacity:0.69100001;fill:none;stroke:#0000ff;stroke-width:3;stroke-linecap:butt;stroke-linejoin:miter;stroke-miterlimit:4;stroke-opacity:1;stroke-dasharray:none"
     id="path5729"
     d="m 563.91912,127.14089 13.74833,-19.85967 12.49851,6.31898 13.12343,10.83255 13.74834,-4.51357 9.9988,-17.15151 11.24866,22.56778 13.74835,-5.41627 13.12343,3.61086 10.6237,16.24883 12.49852,-4.51357 13.12341,-18.95696 12.49851,-11.73526 11.24865,4.51355 11.87357,14.44341 14.37328,-15.34611 10.62371,36.10851 13.74836,-18.05426 14.37328,19.85968 9.99879,-38.81664 11.24866,13.54068 12.49849,23.47054 13.74836,-28.88681 11.87358,-1.80543 13.74834,-2.70814 10.62372,9.92984 13.12342,-19.85968 11.24866,18.05427 14.99821,17.15153 11.87356,-22.56782 12.4985,-2.70814 10.62372,21.6651 12.4985,-17.15153" />
  <path
     inkscape:connector-curvature="0"
     style="opacity:0.70499998;fill:none;stroke:#0000ff;stroke-width:3;stroke-linecap:butt;stroke-linejoin:miter;stroke-miterlimit:4;stroke-opacity:1;stroke-dasharray:none"
     id="path5733"
     d="m 563.41822,132.5542 13.74835,-19.85968 12.49849,13.4681 13.12343,-3.46567 13.74835,-4.51357 9.99879,-10.00241 11.24867,26.14235 13.74834,-16.13994 13.12343,17.90907 10.62371,-8.77307 12.49851,13.35923 13.12342,-26.1061 12.49851,-8.16069 11.24864,4.51357 11.87358,14.44338 14.37327,-15.34609 10.62372,36.1085 13.74835,-18.05427 14.37327,23.43425 9.99881,-49.54032 11.24866,17.11524 12.49849,30.61967 13.74835,-36.03593 11.87358,12.4928 13.74835,-17.00638 10.62371,20.65352 13.12342,-23.43423 11.24866,25.20337 14.99821,10.00241 11.87357,-18.99326 12.49849,-13.43181 10.62373,25.23966 12.4985,-24.30064" />
  <path
     inkscape:connector-curvature="0"
     style="opacity:0.70499998;fill:none;stroke:#0000ff;stroke-width:3;stroke-linecap:butt;stroke-linejoin:miter;stroke-miterlimit:4;stroke-opacity:1;stroke-dasharray:none"
     id="path5735"
     d="m 562.91971,133.61854 13.74835,-23.43425 12.4985,13.46811 13.12344,3.68344 13.74832,-11.66268 9.99881,-2.8533 11.24865,15.41869 13.74836,1.73284 13.12343,-7.11283 10.62371,19.8234 12.4985,-11.6627 13.12344,-8.23329 12.49849,-18.88438 11.24865,15.23725 11.87358,7.29427 14.37326,-8.19698 10.62373,28.95939 13.74836,-10.90515 14.37326,9.13601 9.9988,-28.09297 11.24866,6.39156 12.49849,16.32142 13.74836,-21.73768 11.87357,-8.95456 13.74835,4.44099 10.62373,6.35526 13.12342,-19.85964 11.24865,25.20334 14.9982,6.42788 11.87357,-22.56783 12.4985,11.5901 10.62373,10.94142 12.49848,-10.00239" />
  <path
     inkscape:connector-curvature="0"
     style="fill:none;stroke:#ff0000;stroke-width:3;stroke-linecap:butt;stroke-linejoin:miter;stroke-miterlimit:4;stroke-opacity:1;stroke-dasharray:none"
     id="path5737"
     d="m 563.41941,130.02575 13.74836,-23.43425 12.49849,24.19178 13.12343,3.68344 13.74835,-18.8118 9.9988,-2.8533 11.24865,8.26957 13.74835,8.88198 13.12342,3.61082 10.62373,-8.77307 12.4985,9.78466 13.12342,-8.23327 12.4985,-18.88439 11.24866,-6.21012 11.87357,32.31619 14.37326,-18.92065 10.62374,25.38482 13.74834,-43.07617 14.37328,44.8816 9.99879,-24.51842 11.24867,9.96613 12.49848,16.32142 13.74836,-18.16312 11.87357,-16.10368 13.74836,11.59011 10.62371,6.35527 13.12342,-19.85966 11.24866,21.6288 14.9982,2.8533 11.87358,-11.84413 12.49849,-2.70814 10.62374,10.94143 12.49848,-13.57699" />
  <g
     id="g5871"
     transform="translate(6.0203051,-254.00375)">
    <g
       id="g5789"
       transform="translate(0,10.632081)">
      <g
         id="g5771">
        <path
           inkscape:connector-curvature="0"
           style="fill:none;stroke:#000000;stroke-width:2.00286102;stroke-linecap:butt;stroke-linejoin:round;stroke-miterlimit:4;stroke-opacity:1;stroke-dasharray:none"
           id="path4146"
           d="m 421.89487,593.6255 54.6388,54.80337 0,-57.66892 -55.35303,57.31073" />
        <rect
           style="opacity:0.24800002;fill:url(#pattern5759);fill-opacity:1;fill-rule:nonzero;stroke:#000000;stroke-width:2;stroke-linecap:round;stroke-linejoin:miter;stroke-miterlimit:4;stroke-opacity:1;stroke-dasharray:none;stroke-dashoffset:0"
           id="rect4142"
           y="593.79077"
           x="80.285713"
           height="54.285679"
           width="341.42856" />
        <rect
           style="fill:none;stroke:#000000;stroke-width:2;stroke-linecap:round;stroke-linejoin:miter;stroke-miterlimit:4;stroke-opacity:1;stroke-dasharray:none;stroke-dashoffset:0"
           id="rect5644"
           y="593.79077"
           x="80.285713"
           height="54.285679"
           width="341.42856" />
        <path
           inkscape:connector-curvature="0"
           style="fill:none;stroke:#0000ff;stroke-width:2;stroke-linecap:butt;stroke-linejoin:miter;stroke-miterlimit:4;stroke-opacity:1;stroke-dasharray:none"
           id="path5656"
           d="m 89.84266,628.357 11.11168,-11.11168 10.10152,3.53553 10.60661,6.06092 11.11167,-2.52538 8.08122,-9.59645 9.09138,12.6269 11.11168,-3.03045 10.6066,2.0203 8.58629,9.09138 10.10153,-2.52539 10.6066,-10.6066 10.10153,-6.56599 9.09137,2.52538 9.59645,8.08122 11.61675,-8.58629 8.5863,20.20305 11.11168,-10.10153 11.61675,11.11168 8.08122,-21.71828 9.09138,7.57614 10.10152,13.13199 11.11168,-16.16244 9.59645,-1.01016 11.11168,-1.51523 8.58629,5.55584 10.6066,-11.11167 9.09138,10.10152 12.12183,9.59645 9.59645,-12.62691 10.10152,-1.51523 8.5863,12.12183 10.10152,-9.59644" />
      </g>
      <g
         id="g5777"
         transform="translate(0,0.06546021)">
        <path
           inkscape:connector-curvature="0"
           style="fill:none;stroke:#000000;stroke-width:2.00286102;stroke-linecap:butt;stroke-linejoin:round;stroke-miterlimit:4;stroke-opacity:1;stroke-dasharray:none"
           id="path5685"
           d="m 421.89487,671.6255 54.6388,54.80337 0,-57.66892 -55.35303,57.31073" />
        <rect
           style="opacity:0.24800002;fill:url(#pattern5719);fill-opacity:1;fill-rule:nonzero;stroke:#000000;stroke-width:2;stroke-linecap:round;stroke-linejoin:miter;stroke-miterlimit:4;stroke-opacity:1;stroke-dasharray:none;stroke-dashoffset:0"
           id="rect5687"
           y="671.79077"
           x="80.285713"
           height="54.285679"
           width="341.42856" />
        <rect
           style="fill:none;stroke:#000000;stroke-width:2;stroke-linecap:round;stroke-linejoin:miter;stroke-miterlimit:4;stroke-opacity:1;stroke-dasharray:none;stroke-dashoffset:0"
           id="rect5689"
           y="671.79077"
           x="80.285713"
           height="54.285679"
           width="341.42856" />
        <path
           inkscape:connector-curvature="0"
           style="fill:none;stroke:#0000ff;stroke-width:2;stroke-linecap:butt;stroke-linejoin:miter;stroke-miterlimit:4;stroke-opacity:1;stroke-dasharray:none"
           id="path5691"
           d="m 89.84266,704.357 11.11168,-11.11168 10.10152,7.53553 10.60661,-1.93908 11.11167,-2.52538 8.08122,-5.59645 9.09138,14.6269 11.11168,-9.03045 10.6066,10.0203 8.58629,-4.90862 10.10153,7.47461 10.6066,-14.6066 10.10153,-4.56599 9.09137,2.52538 9.59645,8.08122 11.61675,-8.58629 8.5863,20.20305 11.11168,-10.10153 11.61675,13.11168 8.08122,-27.71828 9.09138,9.57614 10.10152,17.13199 11.11168,-20.16244 9.59645,6.98984 11.11168,-9.51523 8.58629,11.55584 10.6066,-13.11167 9.09138,14.10152 12.12183,5.59645 9.59645,-10.62691 10.10152,-7.51523 8.5863,14.12183 10.10152,-13.59644" />
      </g>
      <g
         id="g5783"
         transform="translate(0,-1.8691101)">
        <path
           inkscape:connector-curvature="0"
           style="fill:none;stroke:#000000;stroke-width:2.00286102;stroke-linecap:butt;stroke-linejoin:round;stroke-miterlimit:4;stroke-opacity:1;stroke-dasharray:none"
           id="path5695"
           d="m 421.89487,751.6255 54.6388,54.80337 0,-57.66892 -55.35303,57.31073" />
        <rect
           style="opacity:0.24800002;fill:url(#pattern5717);fill-opacity:1;fill-rule:nonzero;stroke:#000000;stroke-width:2;stroke-linecap:round;stroke-linejoin:miter;stroke-miterlimit:4;stroke-opacity:1;stroke-dasharray:none;stroke-dashoffset:0"
           id="rect5697"
           y="751.79077"
           x="80.285713"
           height="54.285679"
           width="341.42856" />
        <rect
           style="fill:none;stroke:#000000;stroke-width:2;stroke-linecap:round;stroke-linejoin:miter;stroke-miterlimit:4;stroke-opacity:1;stroke-dasharray:none;stroke-dashoffset:0"
           id="rect5699"
           y="751.79077"
           x="80.285713"
           height="54.285679"
           width="341.42856" />
        <path
           inkscape:connector-curvature="0"
           style="fill:none;stroke:#0000ff;stroke-width:2;stroke-linecap:butt;stroke-linejoin:miter;stroke-miterlimit:4;stroke-opacity:1;stroke-dasharray:none"
           id="path5701"
           d="m 89.84266,780.357 11.11168,-13.11168 10.10152,7.53553 10.60661,2.06092 11.11167,-6.52538 8.08122,-1.59645 9.09138,8.6269 11.11168,0.96955 10.6066,-3.9797 8.58629,11.09138 10.10153,-6.52539 10.6066,-4.6066 10.10153,-10.56599 9.09137,8.52538 9.59645,4.08122 11.61675,-4.58629 8.5863,16.20305 11.11168,-6.10153 11.61675,5.11168 8.08122,-15.71828 9.09138,3.57614 10.10152,9.13199 11.11168,-12.16244 9.59645,-5.01016 11.11168,2.48477 8.58629,3.55584 10.6066,-11.11167 9.09138,14.10152 12.12183,3.59645 9.59645,-12.62691 10.10152,6.48477 8.5863,6.12183 10.10152,-5.59644" />
      </g>
      <path
         inkscape:connector-curvature="0"
         style="fill:none;stroke:#000000;stroke-width:4;stroke-linecap:round;stroke-linejoin:round;stroke-miterlimit:4;stroke-opacity:1;stroke-dasharray:12, 12;stroke-dashoffset:0"
         id="path5715"
         d="m 111.71429,853.79077 271.42857,0" />
    </g>
    <flowRoot
       style="font-size:12.5px;font-style:normal;font-weight:normal;line-height:125%;letter-spacing:0px;word-spacing:0px;fill:#000000;fill-opacity:1;stroke:none;font-family:sans-serif"
       xml:space="preserve"
       id="flowRoot5739"
       transform="matrix(0,-1,1,0,-178.05251,871.41862)"><flowRegion
         id="flowRegion5741"><rect
           id="rect5743"
           y="183.45982"
           x="42.426407"
           height="51.51778"
           width="332.34018" /></flowRegion><flowPara
         style="font-size:20px;fill:#0000ff"
         id="flowPara5745">Reference samples</flowPara></flowRoot>    <path
       inkscape:connector-curvature="0"
       style="fill:none;stroke:#0000ff;stroke-width:3;stroke-linecap:butt;stroke-linejoin:miter;stroke-miterlimit:4;stroke-opacity:1;stroke-dasharray:none"
       id="path5749"
       d="M 68.649763,886.69718 C 33.973969,887.0339 69.660315,777.60111 34.304576,742.24537 70.277647,706.2723 34.036953,580.19934 69.659916,580.11589" />
  </g>
  <g
     id="g5859"
     transform="translate(6.0203051,-280.26772)">
    <g
       id="g5853"
       transform="translate(-18,0.58903254)">
      <path
         inkscape:connector-curvature="0"
         style="fill:none;stroke:#000000;stroke-width:2.00286102;stroke-linecap:butt;stroke-linejoin:round;stroke-miterlimit:4;stroke-opacity:1;stroke-dasharray:none"
         id="path5705"
         d="m 439.89487,943.6255 54.6388,54.80337 0,-57.66892 -55.35303,57.31073" />
      <rect
         style="opacity:0.24800002;fill:url(#pattern5713);fill-opacity:1;fill-rule:nonzero;stroke:#000000;stroke-width:2;stroke-linecap:round;stroke-linejoin:miter;stroke-miterlimit:4;stroke-opacity:1;stroke-dasharray:none;stroke-dashoffset:0"
         id="rect5707"
         y="943.79077"
         x="98.285713"
         height="54.285679"
         width="341.42856" />
      <rect
         style="fill:none;stroke:#000000;stroke-width:2;stroke-linecap:round;stroke-linejoin:miter;stroke-miterlimit:4;stroke-opacity:1;stroke-dasharray:none;stroke-dashoffset:0"
         id="rect5709"
         y="943.79077"
         x="98.285713"
         height="54.285679"
         width="341.42856" />
      <path
         inkscape:connector-curvature="0"
         style="fill:none;stroke:#ff0000;stroke-width:2;stroke-linecap:butt;stroke-linejoin:miter;stroke-miterlimit:4;stroke-opacity:1;stroke-dasharray:none"
         id="path5711"
         d="m 107.84266,978.357 11.11168,-13.11168 10.10152,13.53553 10.60661,2.06092 11.11167,-10.52538 8.08122,-1.59645 9.09138,4.6269 11.11168,4.96955 10.6066,2.0203 8.58629,-4.90862 10.10153,5.47461 10.6066,-4.6066 10.10153,-10.56599 9.09137,-3.47462 9.59645,18.08122 11.61675,-10.58629 8.5863,14.20305 11.11168,-24.10153 11.61675,25.11168 8.08122,-13.71828 9.09138,5.57614 10.10152,9.13199 11.11168,-10.16244 9.59645,-9.01016 11.11168,6.48477 8.58629,3.55584 10.6066,-11.11167 9.09138,12.10152 12.12183,1.59645 9.59645,-6.62691 10.10152,-1.51523 8.5863,6.12183 10.10152,-7.59644" />
    </g>
    <flowRoot
       style="font-size:12.5px;font-style:normal;font-weight:normal;line-height:125%;letter-spacing:0px;word-spacing:0px;fill:#000000;fill-opacity:1;stroke:none;font-family:sans-serif"
       xml:space="preserve"
       id="flowRoot5761"
       transform="matrix(0,-1,1,0,-168.51034,1070.6395)"><flowRegion
         id="flowRegion5763"><rect
           id="rect5765"
           y="180.42937"
           x="64.649765"
           height="71.720825"
           width="262.63965" /></flowRegion><flowPara
         style="font-size:20px;fill:#ff0000"
         id="flowPara5767">Tested</flowPara><flowPara
         style="font-size:20px;fill:#ff0000"
         id="flowPara5769">sample</flowPara></flowRoot>  </g>
  <text
     sodipodi:linespacing="125%"
     style="font-size:20px;font-style:normal;font-weight:normal;line-height:125%;letter-spacing:0px;word-spacing:0px;fill:#000000;fill-opacity:1;stroke:none;font-family:sans-serif"
     xml:space="preserve"
     id="text5915"
     y="69.312599"
     x="65.680222"><tspan
       style="font-size:25px"
       id="tspan5917"
       y="69.312599"
       x="65.680222">Bam files</tspan></text>
  <path
     inkscape:connector-curvature="0"
     style="fill:none;stroke:#000000;stroke-width:4;stroke-linecap:round;stroke-linejoin:round;stroke-miterlimit:4;stroke-opacity:1;stroke-dasharray:none;marker-end:url(#Arrow2Mend)"
     id="path5926"
     d="M 72.730983,102.64762 C 43.078462,135.28411 43.379952,252.19237 91.923882,314.77966" />
  <text
     sodipodi:linespacing="125%"
     style="font-size:27.5px;font-style:normal;font-weight:normal;line-height:125%;letter-spacing:0px;word-spacing:0px;fill:#000000;fill-opacity:1;stroke:none;font-family:sans-serif"
     xml:space="preserve"
     id="text7908"
     y="257.66586"
     x="34.285713"><tspan
       id="tspan7910"
       y="257.66586"
       x="34.285713">1</tspan></text>
  <flowRoot
     style="font-size:20px;font-style:normal;font-weight:normal;line-height:125%;letter-spacing:0px;word-spacing:0px;fill:#000000;fill-opacity:1;stroke:none;font-family:sans-serif"
     xml:space="preserve"
     id="flowRoot7912"
     transform="translate(-15.443471,1.10311)"><flowRegion
       id="flowRegion7914"><rect
         id="rect7916"
         y="150.52306"
         x="78.571426"
         height="103.57143"
         width="207.85715" /></flowRegion><flowPara
       id="flowPara7918">- Genome binning</flowPara><flowPara
       id="flowPara7922">- Read counting</flowPara><flowPara
       id="flowPara7924">- GC correction</flowPara><flowPara
       id="flowPara7920" /></flowRoot>  <path
     inkscape:connector-curvature="0"
     style="fill:none;stroke:#000000;stroke-width:4;stroke-linecap:butt;stroke-linejoin:miter;stroke-miterlimit:4;stroke-opacity:1;stroke-dasharray:none;marker-end:url(#marker7934)"
     id="path7926"
     d="M 343.06567,322.70836 C 340.29666,181.58555 442.56942,124.86561 526.1811,125.25256" />
  <text
     sodipodi:linespacing="125%"
     style="font-size:20px;font-style:normal;font-weight:normal;line-height:125%;letter-spacing:0px;word-spacing:0px;fill:#000000;fill-opacity:1;stroke:none;font-family:sans-serif"
     xml:space="preserve"
     id="text8754"
     y="144.00536"
     x="401.53024"><tspan
       style="font-size:27.5px"
       id="tspan8756"
       y="144.00536"
       x="401.53024">2</tspan></text>
  <flowRoot
     style="font-size:20px;font-style:normal;font-weight:normal;line-height:125%;letter-spacing:0px;word-spacing:0px;fill:#000000;fill-opacity:1;stroke:none;font-family:sans-serif"
     xml:space="preserve"
     id="flowRoot8758"
     transform="matrix(0.70710678,-0.70710678,0.70710678,0.70710678,203.16386,189.42728)"><flowRegion
       id="flowRegion8760"><rect
         id="rect8762"
         y="150.52306"
         x="78.571426"
         height="103.57143"
         width="207.85715" /></flowRegion><flowPara
       id="flowPara8770">Normalization</flowPara></flowRoot>  <flowRoot
     style="font-size:20px;font-style:normal;font-weight:normal;line-height:125%;letter-spacing:0px;word-spacing:0px;fill:#000000;fill-opacity:1;stroke:none;font-family:sans-serif"
     xml:space="preserve"
     id="flowRoot8782"
     transform="translate(2,4)"><flowRegion
       id="flowRegion8784"><rect
         id="rect8786"
         y="169.37675"
         x="554.86182"
         height="31.990046"
         width="416.42215" /></flowRegion><flowPara
       style="font-size:12.5px"
       id="flowPara8788">Z Z Z Z Z Z Z Z Z Z Z Z Z Z Z Z Z Z Z Z Z Z Z Z Z Z Z Z Z Z Z Z Z</flowPara></flowRoot>  <path
     inkscape:connector-curvature="0"
     style="fill:none;stroke:#000000;stroke-width:3;stroke-linecap:butt;stroke-linejoin:miter;stroke-miterlimit:4;stroke-opacity:1;stroke-dasharray:none"
     id="path8790"
     d="M 963.0107,200.2637 762.24558,266.45" />
  <path
     inkscape:connector-curvature="0"
     style="fill:none;stroke:#000000;stroke-width:3;stroke-linecap:butt;stroke-linejoin:miter;stroke-miterlimit:4;stroke-opacity:1;stroke-dasharray:none"
     id="path8792"
     d="M 559.27425,201.3668 762.5903,266.31211" />
  <path
     inkscape:connector-curvature="0"
     style="fill:none;stroke:#000000;stroke-width:4;stroke-linecap:butt;stroke-linejoin:miter;stroke-miterlimit:4;stroke-opacity:1;stroke-dasharray:none;marker-end:url(#marker8802)"
     id="path8794"
     d="m 762.24558,265.89845 0,30.33539" />
  <text
     sodipodi:linespacing="125%"
     style="font-size:20px;font-style:normal;font-weight:normal;line-height:125%;letter-spacing:0px;word-spacing:0px;fill:#000000;fill-opacity:1;stroke:none;font-family:sans-serif"
     xml:space="preserve"
     id="text8858"
     y="221.01653"
     x="663.92511"><tspan
       id="tspan8860"
       y="221.01653"
       x="663.92511">Z-score computation</tspan></text>
  <text
     sodipodi:linespacing="125%"
     style="font-size:27.5px;font-style:normal;font-weight:normal;line-height:125%;letter-spacing:0px;word-spacing:0px;fill:#000000;fill-opacity:1;stroke:none;font-family:sans-serif"
     xml:space="preserve"
     id="text8862"
     y="252.10966"
     x="752.31769"><tspan
       id="tspan8864"
       y="252.10966"
       x="752.31769">3</tspan></text>
  <text
     sodipodi:linespacing="125%"
     style="font-size:20px;font-style:normal;font-weight:normal;line-height:125%;letter-spacing:0px;word-spacing:0px;fill:#000000;fill-opacity:1;stroke:none;font-family:sans-serif"
     xml:space="preserve"
     id="text8896"
     y="454.3696"
     x="843.63544"><tspan
       id="tspan8900"
       y="454.3696"
       x="843.63544">- P-value estimation</tspan><tspan
       id="tspan8902"
       y="479.3696"
       x="843.63544">- FDR control</tspan></text>
  <text
     sodipodi:linespacing="125%"
     style="font-size:27.5px;font-style:normal;font-weight:normal;line-height:125%;letter-spacing:0px;word-spacing:0px;fill:#000000;fill-opacity:1;stroke:none;font-family:sans-serif"
     xml:space="preserve"
     id="text8906"
     y="401.66873"
     x="922.75543"><tspan
       id="tspan8908"
       y="401.66873"
       x="922.75543">4</tspan></text>
  <rect
     style="fill:none;stroke:#000000;stroke-width:4;stroke-linecap:round;stroke-linejoin:round;stroke-miterlimit:4;stroke-opacity:1;stroke-dasharray:none;stroke-dashoffset:0"
     id="rect9392"
     y="647.02124"
     x="769.62695"
     height="62.876987"
     width="238.27069" />
  <text
     sodipodi:linespacing="125%"
     style="font-size:20px;font-style:normal;font-weight:normal;line-height:125%;letter-spacing:0px;word-spacing:0px;fill:#000000;fill-opacity:1;stroke:none;font-family:sans-serif"
     xml:space="preserve"
     id="text9394"
     y="671.1554"
     x="889.17499"><tspan
       style="text-align:center;text-anchor:middle"
       id="tspan9396"
       y="671.1554"
       x="889.17499">Deletion / duplication</tspan><tspan
       style="text-align:center;text-anchor:middle"
       id="tspan9398"
       y="696.1554"
       x="889.17499">calls</tspan></text>
  <text
     sodipodi:linespacing="125%"
     style="font-size:20px;font-style:normal;font-weight:normal;line-height:125%;letter-spacing:0px;word-spacing:0px;fill:#000000;fill-opacity:1;stroke:none;font-family:sans-serif"
     xml:space="preserve"
     id="text9400"
     y="556.56665"
     x="940.94861"><tspan
       id="tspan9402"
       y="556.56665"
       x="940.94861" /></text>
  <rect
     style="fill:#000000;fill-opacity:0.03517588;fill-rule:nonzero;stroke:#000000;stroke-width:3;stroke-linecap:round;stroke-linejoin:round;stroke-miterlimit:4;stroke-opacity:1;stroke-dasharray:none;stroke-dashoffset:0"
     id="rect8866"
     y="317.02139"
     x="560.44421"
     height="245.63596"
     width="275.27643" />
  <path
     inkscape:connector-curvature="0"
     style="fill:none;stroke:#000000;stroke-width:3;stroke-linecap:butt;stroke-linejoin:miter;stroke-miterlimit:4;stroke-opacity:1;stroke-dasharray:none"
     id="path8868"
     d="m 559.81088,526.43745 274.67315,0" />
  <path
     inkscape:connector-curvature="0"
     style="fill:none;stroke:#000000;stroke-width:3;stroke-linecap:butt;stroke-linejoin:miter;stroke-miterlimit:4;stroke-opacity:1;stroke-dasharray:none"
     id="path8870"
     d="m 697.14745,540.77781 0,-216.76014" />
  <path
     inkscape:connector-curvature="0"
     style="fill:none;stroke:#009e73;stroke-width:3;stroke-linecap:butt;stroke-linejoin:miter;stroke-miterlimit:4;stroke-opacity:1;stroke-dasharray:none;stroke-dashoffset:0"
     id="path8872"
     d="m 601.45309,525.8859 c 40.36013,-0.30177 42.08121,-50.83505 50.9049,-67.56115 12.15056,-23.03247 19.09164,-114.16997 45.06523,-113.89964 20.994,0.11133 24.09796,51.02134 33.43201,73.00375 9.49476,22.36088 21.86503,108.9033 63.08969,109.00859" />
  <path
     inkscape:connector-curvature="0"
     style="fill:none;stroke:#e69f00;stroke-width:3;stroke-linecap:butt;stroke-linejoin:miter;stroke-miterlimit:4;stroke-opacity:1;stroke-dasharray:none"
     id="path8874"
     d="m 603.10775,525.61012 c -33.64471,0 -34.17318,-14.08844 -33.64471,0" />
  <path
     inkscape:connector-curvature="0"
     style="fill:none;stroke:#e69f00;stroke-width:3;stroke-linecap:butt;stroke-linejoin:miter;stroke-miterlimit:4;stroke-opacity:1;stroke-dasharray:none"
     id="path8876"
     d="m 793.86688,526.41379 c 33.64471,0 34.17318,-14.08844 33.64471,0" />
  <text
     sodipodi:linespacing="125%"
     style="font-size:20px;font-style:normal;font-weight:normal;line-height:125%;letter-spacing:0px;word-spacing:0px;fill:#000000;fill-opacity:1;stroke:none;font-family:sans-serif"
     xml:space="preserve"
     id="text8878"
     y="549.43127"
     x="707.05261"><tspan
       id="tspan8880"
       y="549.43127"
       x="707.05261">Z</tspan></text>
  <path
     inkscape:connector-curvature="0"
     style="fill:none;stroke:#000000;stroke-width:2;stroke-linecap:butt;stroke-linejoin:miter;stroke-miterlimit:4;stroke-opacity:1;stroke-dasharray:12, 12;stroke-dashoffset:0"
     id="path8892"
     d="m 796.62814,541.12316 0,-209.58996" />
  <path
     inkscape:connector-curvature="0"
     style="fill:none;stroke:#000000;stroke-width:2;stroke-linecap:butt;stroke-linejoin:miter;stroke-miterlimit:4;stroke-opacity:1;stroke-dasharray:12, 12;stroke-dashoffset:0"
     id="path8894"
     d="m 598.62814,541.12316 0,-209.58996" />
  <path
     inkscape:connector-curvature="0"
     style="fill:none;stroke:#000000;stroke-width:3;stroke-linecap:butt;stroke-linejoin:miter;stroke-miterlimit:4;stroke-opacity:1;stroke-dasharray:none;marker-end:url(#marker8802)"
     id="path8914"
     d="m 578.65065,548.84489 c -0.97797,62.56603 92.71061,108.88492 173.73904,126.85708" />
  <rect
     style="fill:#e69f00;fill-opacity:1;fill-rule:nonzero;stroke:none"
     id="rect8910"
     y="543.32935"
     x="565.41339"
     height="10.479498"
     width="31.438494" />
  <path
     inkscape:connector-curvature="0"
     style="fill:none;stroke:#000000;stroke-width:3;stroke-linecap:butt;stroke-linejoin:miter;stroke-miterlimit:4;stroke-opacity:1;stroke-dasharray:none"
     id="path8916"
     d="m 813.61202,548.84489 c 2.43635,70.77079 -132.78553,105.29623 -74.59232,123.39089" />
  <rect
     style="fill:#e69f00;fill-opacity:1;fill-rule:nonzero;stroke:none"
     id="rect8912"
     y="542.77777"
     x="797.06543"
     height="10.479498"
     width="31.438494" />
  <text
     sodipodi:linespacing="125%"
     style="font-size:20px;font-style:normal;font-weight:normal;line-height:125%;letter-spacing:0px;word-spacing:0px;fill:#000000;fill-opacity:1;stroke:none;font-family:sans-serif"
     xml:space="preserve"
     id="text9404"
     y="722.69946"
     x="685.19977"><tspan
       style="font-size:27.5px"
       id="tspan9406"
       y="722.69946"
       x="685.19977">5</tspan></text>
  <text
     sodipodi:linespacing="125%"
     style="font-size:20px;font-style:normal;font-weight:normal;line-height:125%;letter-spacing:0px;word-spacing:0px;fill:#000000;fill-opacity:1;stroke:none;font-family:sans-serif"
     xml:space="preserve"
     id="text9408"
     y="664.33807"
     x="616.35254"><tspan
       style="text-align:center;text-anchor:middle"
       id="tspan9412"
       y="664.33807"
       x="619.53613">Retrieve</tspan></text>
  <text
     xml:space="preserve"
     style="font-size:40px;font-style:normal;font-variant:normal;font-weight:normal;font-stretch:normal;text-align:start;line-height:125%;letter-spacing:0px;word-spacing:0px;text-anchor:start;fill:#000000;fill-opacity:1;stroke:none;font-family:TeX Gyre Bonum;-inkscape-font-specification:TeX Gyre Bonum"
     x="883.61218"
     y="569.10614"
     id="text3120"
     sodipodi:linespacing="125%"
     transform="translate(0,-7.3563764e-6)"><tspan
       sodipodi:role="line"
       id="tspan3122"></tspan></text>
  <text
     x="631.78064"
     y="689.69678"
     id="text3124"
     xml:space="preserve"
     style="font-size:20px;font-style:normal;font-weight:normal;line-height:125%;letter-spacing:0px;word-spacing:0px;fill:#000000;fill-opacity:1;stroke:none;font-family:sans-serif"
     sodipodi:linespacing="125%"><tspan
       x="634.96423"
       y="689.69678"
       id="tspan3126"
       style="text-align:center;text-anchor:middle">abnormal regions</tspan></text>
</svg>
